<svg width="22" height="19" viewBox="0 0 22 19" fill="none" xmlns="http://www.w3.org/2000/svg">
<path d="M15.9848 12.9721H3.86467C3.77799 12.9678 3.695 12.9363 3.6278 12.8824C3.5606 12.8284 3.51272 12.7547 3.49113 12.6721L0.641258 3.77214C0.619609 3.70398 0.612681 3.63213 0.620918 3.56118C0.629156 3.49024 0.652377 3.42176 0.689095 3.36014C0.72168 3.30305 0.768867 3.25531 0.82599 3.22164C0.883113 3.18797 0.948194 3.16952 1.0148 3.16814H15.998C16.1111 3.17685 16.2161 3.22894 16.2904 3.31315C16.3647 3.39737 16.4023 3.50693 16.3949 3.61814C16.4023 3.72935 16.3647 3.83891 16.2904 3.92313C16.2161 4.00734 16.1111 4.05944 15.998 4.06814H1.57968L4.14355 12.0681H15.6794L18.4479 1.06814C18.4654 0.97904 18.5132 0.898434 18.5835 0.839557C18.6538 0.780681 18.7423 0.747034 18.8346 0.744141H20.6769C20.7901 0.752592 20.8953 0.804614 20.9696 0.888888C21.0439 0.973163 21.0814 1.08287 21.0738 1.19414C21.0814 1.30541 21.0439 1.41512 20.9696 1.49939C20.8953 1.58367 20.7901 1.63569 20.6769 1.64414H19.1349L16.3634 12.6441C16.3463 12.7325 16.2995 12.8126 16.2304 12.8715C16.1614 12.9305 16.0741 12.9649 15.9827 12.9691" fill="#1A1A1A"/>
<path d="M15.9848 12.9721H3.86467C3.77799 12.9678 3.695 12.9363 3.6278 12.8824C3.5606 12.8284 3.51272 12.7547 3.49113 12.6721L0.641258 3.77214C0.619609 3.70398 0.612681 3.63213 0.620918 3.56118C0.629156 3.49024 0.652377 3.42176 0.689095 3.36014C0.72168 3.30305 0.768867 3.25531 0.82599 3.22164C0.883113 3.18797 0.948194 3.16952 1.0148 3.16814H15.998C16.1111 3.17685 16.2161 3.22894 16.2904 3.31315C16.3647 3.39737 16.4023 3.50693 16.3949 3.61814C16.4023 3.72935 16.3647 3.83891 16.2904 3.92313C16.2161 4.00734 16.1111 4.05944 15.998 4.06814H1.57968L4.14355 12.0681H15.6794L18.4479 1.06814C18.4654 0.97904 18.5132 0.898434 18.5835 0.839557C18.6538 0.780681 18.7423 0.747034 18.8346 0.744141H20.6769C20.7901 0.752592 20.8953 0.804614 20.9696 0.888888C21.0439 0.973163 21.0814 1.08287 21.0738 1.19414C21.0814 1.30541 21.0439 1.41512 20.9696 1.49939C20.8953 1.58367 20.7901 1.63569 20.6769 1.64414H19.1349L16.3634 12.6441C16.3463 12.7325 16.2995 12.8126 16.2304 12.8715C16.1614 12.9305 16.0741 12.9649 15.9827 12.9691" stroke="#1A1A1A" stroke-width="0.7"/>
<path d="M5.43204 18.4819C5.01402 18.4891 4.60329 18.3738 4.25218 18.1508C3.90106 17.9278 3.62545 17.6072 3.46046 17.2297C3.29547 16.8523 3.24857 16.4352 3.32572 16.0314C3.40287 15.6277 3.60059 15.2557 3.89369 14.9628C4.18679 14.6698 4.562 14.4693 4.97153 14.3866C5.38106 14.3039 5.80638 14.3429 6.19329 14.4985C6.58021 14.6541 6.91122 14.9194 7.14415 15.2605C7.37708 15.6016 7.50139 16.0032 7.50126 16.4139C7.50559 16.9576 7.29012 17.4808 6.90215 17.8686C6.51418 18.2563 5.98544 18.4769 5.43204 18.4819ZM5.43204 15.2449C5.19614 15.241 4.96437 15.306 4.76623 15.4319C4.5681 15.5578 4.41256 15.7387 4.31943 15.9517C4.22629 16.1647 4.19977 16.4001 4.24323 16.6279C4.28669 16.8558 4.39818 17.0657 4.56349 17.2311C4.72881 17.3965 4.94048 17.5099 5.17155 17.5567C5.40263 17.6035 5.64266 17.5817 5.86109 17.4941C6.07952 17.4065 6.26647 17.2569 6.39815 17.0646C6.52982 16.8722 6.60026 16.6457 6.60049 16.4139C6.60294 16.1068 6.4813 15.8112 6.26225 15.5921C6.04321 15.3729 5.74465 15.2481 5.43204 15.2449Z" fill="#1A1A1A" stroke="#1A1A1A" stroke-width="0.7"/>
<path d="M14.5822 18.4819C14.1642 18.4893 13.7533 18.3742 13.4021 18.1513C13.0508 17.9284 12.7751 17.6078 12.6099 17.2304C12.4448 16.853 12.3977 16.4358 12.4748 16.0321C12.5518 15.6283 12.7494 15.2562 13.0425 14.9631C13.3356 14.6701 13.7108 14.4694 14.1203 14.3867C14.5299 14.3039 14.9552 14.3428 15.3422 14.4984C15.7292 14.654 16.0603 14.9193 16.2932 15.2604C16.5262 15.6015 16.6506 16.0031 16.6504 16.4139C16.6545 16.9574 16.4391 17.4802 16.0514 17.8679C15.6637 18.2556 15.1354 18.4764 14.5822 18.4819ZM14.5822 15.2449C14.3463 15.2407 14.1144 15.3057 13.9162 15.4314C13.7179 15.5571 13.5622 15.738 13.4689 15.951C13.3756 16.1639 13.3489 16.3994 13.3923 16.6273C13.4356 16.8552 13.547 17.0652 13.7123 17.2307C13.8776 17.3962 14.0892 17.5097 14.3203 17.5566C14.5514 17.6035 14.7915 17.5817 15.01 17.4941C15.2285 17.4065 15.4155 17.257 15.5472 17.0647C15.679 16.8723 15.7494 16.6458 15.7497 16.4139C15.7518 16.107 15.6303 15.8118 15.4115 15.5927C15.1927 15.3736 14.8946 15.2486 14.5822 15.2449Z" fill="#1A1A1A" stroke="#1A1A1A" stroke-width="0.7"/>
</svg>
