<svg width="150" height="720" viewBox="0 0 150 720" fill="none" xmlns="http://www.w3.org/2000/svg">
<path d="M77 117L77 606" stroke="#CBCED6" stroke-width="2"/>
<circle cx="75" cy="645" r="75" fill="#FF710B"/>
<path d="M104 630C105.105 630 106 629.105 106 628C106 626.895 105.105 626 104 626C102.895 626 102 626.895 102 628C102 629.105 102.895 630 104 630Z" stroke="white" stroke-width="2"/>
<path d="M52.5 626C54.433 626 56 624.433 56 622.5C56 620.567 54.433 619 52.5 619C50.567 619 49 620.567 49 622.5C49 624.433 50.567 626 52.5 626Z" stroke="white" stroke-width="2"/>
<path d="M41.692 644.34H48" stroke="white" stroke-width="2" stroke-linecap="round" stroke-linejoin="round"/>
<path d="M44.846 647.494V641.186" stroke="white" stroke-width="2" stroke-linecap="round" stroke-linejoin="round"/>
<path d="M92.6084 613.309L97.0688 617.769" stroke="white" stroke-width="2" stroke-linecap="round" stroke-linejoin="round"/>
<path d="M92.6084 617.769L97.0688 613.309" stroke="white" stroke-width="2" stroke-linecap="round" stroke-linejoin="round"/>
<path d="M75.8768 647.198C73.3889 647.198 70.9569 646.46 68.8883 645.078C66.8197 643.696 65.2075 641.731 64.2554 639.433C63.3033 637.134 63.0542 634.605 63.5396 632.165C64.0249 629.725 65.223 627.484 66.9822 625.724C68.7414 623.965 70.9828 622.767 73.4229 622.282C75.8629 621.796 78.3922 622.045 80.6907 622.998C82.9892 623.95 84.9537 625.562 86.3359 627.631C87.7181 629.699 88.4558 632.131 88.4558 634.619C88.4518 637.954 87.1254 641.151 84.7672 643.509C82.4091 645.868 79.2118 647.194 75.8768 647.198V647.198ZM75.8768 624.328C73.8413 624.328 71.8515 624.932 70.1589 626.063C68.4664 627.193 67.1473 628.801 66.3683 630.681C65.5893 632.562 65.3855 634.631 65.7826 636.628C66.1797 638.624 67.16 640.458 68.5994 641.898C70.0387 643.337 71.8726 644.317 73.869 644.714C75.8655 645.111 77.9348 644.908 79.8154 644.129C81.6961 643.35 83.3034 642.03 84.4343 640.338C85.5652 638.645 86.1688 636.656 86.1688 634.62C86.1667 631.891 85.0818 629.274 83.1521 627.345C81.2224 625.415 78.6058 624.33 75.8768 624.328Z" fill="white"/>
<path d="M90.6701 666.638H61.084C58.921 666.638 57.384 664.927 57.084 662.176C56.423 656.207 59.934 650.032 66.031 646.443C66.2924 646.289 66.6043 646.245 66.8981 646.321C67.1919 646.397 67.4434 646.586 67.5975 646.847C67.7516 647.109 67.7956 647.421 67.7197 647.715C67.6439 648.008 67.4544 648.26 67.193 648.414C63.151 650.793 58.676 655.758 59.358 661.921C59.458 662.829 59.817 664.35 61.089 664.35H90.6741C90.9551 664.35 91.818 664.35 92.213 662.934C93.748 657.482 89.7131 651.618 84.9451 648.64C84.6974 648.475 84.5236 648.221 84.4606 647.93C84.3976 647.639 84.4504 647.336 84.6078 647.083C84.7651 646.831 85.0146 646.65 85.3034 646.578C85.5921 646.507 85.8972 646.551 86.1541 646.701C91.4811 650.022 96.338 656.714 94.415 663.552C94.2402 664.418 93.7725 665.198 93.0905 665.76C92.4084 666.322 91.5538 666.632 90.6701 666.638V666.638Z" fill="white"/>
<path d="M100.77 655.709L105.231 660.169" stroke="white" stroke-width="2" stroke-linecap="round" stroke-linejoin="round"/>
<path d="M100.77 660.169L105.231 655.709" stroke="white" stroke-width="2" stroke-linecap="round" stroke-linejoin="round"/>
<circle cx="75" cy="455" r="74" fill="white" stroke="#CBCED6" stroke-width="2"/>
<path d="M79.083 478.751H51.295C50.1597 478.75 49.0712 478.298 48.2683 477.495C47.4654 476.693 47.0136 475.604 47.012 474.469V443.692C47.0133 442.557 47.465 441.468 48.268 440.665C49.0709 439.863 50.1596 439.411 51.295 439.41H99.359C100.495 439.411 101.584 439.862 102.387 440.665C103.19 441.467 103.642 442.556 103.643 443.692V457.712C103.643 457.977 103.538 458.232 103.35 458.419C103.163 458.607 102.908 458.712 102.643 458.712C102.378 458.712 102.123 458.607 101.936 458.419C101.748 458.232 101.643 457.977 101.643 457.712V443.692C101.642 443.086 101.401 442.506 100.973 442.078C100.545 441.65 99.9645 441.409 99.359 441.408H51.295C50.6895 441.409 50.109 441.65 49.6808 442.078C49.2527 442.506 49.0118 443.086 49.011 443.692V474.468C49.0118 475.073 49.2527 475.654 49.681 476.081C50.1092 476.509 50.6897 476.75 51.295 476.75H79.083C79.3482 476.75 79.6026 476.855 79.7901 477.043C79.9776 477.23 80.083 477.485 80.083 477.75C80.0831 477.881 80.0574 478.012 80.0072 478.133C79.957 478.254 79.8833 478.365 79.7905 478.458C79.6976 478.551 79.5873 478.624 79.4659 478.675C79.3445 478.725 79.2144 478.751 79.083 478.751V478.751Z" fill="#CBCED6" stroke="#CBCED6" stroke-width="0.5"/>
<path d="M102.643 457.314H48.01C47.7448 457.314 47.4904 457.209 47.3029 457.021C47.1154 456.834 47.01 456.579 47.01 456.314V448.706C47.01 448.441 47.1154 448.186 47.3029 447.999C47.4904 447.811 47.7448 447.706 48.01 447.706H102.643C102.908 447.706 103.163 447.811 103.35 447.999C103.538 448.186 103.643 448.441 103.643 448.706V456.314C103.643 456.579 103.538 456.834 103.35 457.021C103.163 457.209 102.908 457.314 102.643 457.314ZM49.012 455.314H101.643V449.706H49.01L49.012 455.314Z" fill="#CBCED6" stroke="#CBCED6" stroke-width="0.5"/>
<path d="M70.153 464.143H52.56C52.4287 464.143 52.2986 464.117 52.1773 464.067C52.056 464.017 51.9457 463.943 51.8529 463.85C51.76 463.757 51.6864 463.647 51.6361 463.526C51.5859 463.404 51.56 463.274 51.56 463.143C51.56 462.878 51.6654 462.623 51.8529 462.436C52.0404 462.248 52.2948 462.143 52.56 462.143H70.153C70.4182 462.143 70.6726 462.248 70.8601 462.436C71.0476 462.623 71.153 462.878 71.153 463.143C71.153 463.408 71.0476 463.663 70.8601 463.85C70.6726 464.038 70.4182 464.143 70.153 464.143Z" fill="#CBCED6" stroke="#CBCED6" stroke-width="0.5"/>
<path d="M95.173 485.432C91.9566 485.429 88.8729 484.15 86.5986 481.875C84.3243 479.601 83.0452 476.517 83.042 473.301C83.0452 470.085 84.3243 467.001 86.5986 464.727C88.8729 462.452 91.9566 461.173 95.173 461.17C98.3894 461.173 101.473 462.452 103.747 464.727C106.022 467.001 107.301 470.085 107.304 473.301C107.301 476.517 106.022 479.601 103.747 481.875C101.473 484.15 98.3894 485.429 95.173 485.432ZM95.173 462.863C92.4057 462.866 89.7528 463.967 87.796 465.924C85.8392 467.881 84.7384 470.534 84.735 473.301C84.7374 476.069 85.8377 478.723 87.7946 480.681C89.7515 482.638 92.405 483.74 95.173 483.743C97.9403 483.74 100.593 482.639 102.55 480.682C104.507 478.725 105.608 476.072 105.611 473.305C105.609 470.537 104.508 467.883 102.551 465.925C100.595 463.968 97.941 462.866 95.173 462.863Z" fill="#CBCED6" stroke="#CBCED6" stroke-width="0.5"/>
<path d="M102.837 472.179H100.648L101.472 468.887C101.523 468.68 101.491 468.461 101.381 468.278C101.271 468.095 101.093 467.963 100.886 467.911C100.679 467.86 100.46 467.893 100.277 468.003C100.094 468.113 99.9623 468.29 99.9099 468.497L98.9889 472.18H97.0279L96.1069 468.497C96.0465 468.339 95.9395 468.203 95.8 468.107C95.6605 468.011 95.4952 467.959 95.3259 467.959C95.1566 467.959 94.9912 468.011 94.8518 468.107C94.7123 468.203 94.6053 468.339 94.5449 468.497L93.6239 472.18H91.6629L90.7419 468.497C90.689 468.29 90.5569 468.113 90.3742 468.004C90.1915 467.894 89.9729 467.861 89.7659 467.911C89.5589 467.963 89.381 468.095 89.2711 468.278C89.1612 468.461 89.1284 468.68 89.1799 468.887L90.0039 472.179H87.8149C87.6031 472.18 87.4004 472.265 87.2506 472.415C87.1009 472.564 87.0162 472.767 87.0149 472.979C87.0162 473.191 87.1009 473.393 87.2506 473.543C87.4004 473.693 87.6031 473.778 87.8149 473.779H90.4049L91.8619 479.608C91.9223 479.766 92.0293 479.902 92.1688 479.998C92.3082 480.094 92.4735 480.146 92.6429 480.146C92.8122 480.146 92.9775 480.094 93.117 479.998C93.2565 479.902 93.3635 479.766 93.4239 479.608L94.8809 473.779H95.7689L97.2259 479.608C97.2697 479.782 97.3703 479.936 97.5118 480.046C97.6533 480.157 97.8275 480.217 98.0069 480.217C98.1863 480.217 98.3605 480.157 98.5019 480.046C98.6434 479.936 98.744 479.782 98.7879 479.608L100.245 473.779H102.835C103.047 473.778 103.249 473.693 103.399 473.543C103.549 473.393 103.634 473.191 103.635 472.979C103.634 472.767 103.549 472.565 103.4 472.415C103.251 472.266 103.048 472.181 102.837 472.179V472.179ZM92.6429 476.104L92.0639 473.788H93.2229L92.6429 476.104ZM95.2829 472.179L95.3259 472.009L95.3689 472.179H95.2829ZM98.0079 476.104L97.4289 473.788H98.5849L98.0079 476.104Z" fill="#CBCED6" stroke="#CBCED6" stroke-width="0.5"/>
<path d="M116 442C118.209 442 120 440.209 120 438C120 435.791 118.209 434 116 434C113.791 434 112 435.791 112 438C112 440.209 113.791 442 116 442Z" stroke="#CBCED6" stroke-width="2"/>
<path d="M46 429C47.6569 429 49 427.657 49 426C49 424.343 47.6569 423 46 423C44.3431 423 43 424.343 43 426C43 427.657 44.3431 429 46 429Z" stroke="#CBCED6" stroke-width="2"/>
<path d="M97.0529 415.411V421.719" stroke="#CBCED6" stroke-width="2" stroke-linecap="round" stroke-linejoin="round"/>
<path d="M100.207 418.565H93.8989" stroke="#CBCED6" stroke-width="2" stroke-linecap="round" stroke-linejoin="round"/>
<path d="M34.5903 448.6L30.1299 453.061" stroke="#CBCED6" stroke-width="2" stroke-linecap="round" stroke-linejoin="round"/>
<path d="M34.5903 453.061L30.1299 448.6" stroke="#CBCED6" stroke-width="2" stroke-linecap="round" stroke-linejoin="round"/>
<circle cx="75" cy="265" r="74" fill="white" stroke="#CBCED6" stroke-width="2"/>
<path d="M96.2336 261.285C96.0632 261.207 95.8789 261.166 95.6923 261.166C95.6234 261.174 95.5552 261.188 95.4885 261.208C95.2472 261.194 95.0206 261.13 94.7761 261.13H88.6755V257.398C88.6755 257.028 88.5326 256.672 88.2783 256.41C88.024 256.148 87.6789 256 87.3191 256H42.96C42.5996 256 42.2541 256.147 41.9991 256.409C41.7442 256.671 41.6007 257.027 41.6003 257.398V280.256C41.6007 280.627 41.7442 280.982 41.9991 281.245C42.2541 281.507 42.5996 281.654 42.96 281.654H46.2027V290.465C46.2031 290.836 46.3465 291.191 46.6015 291.453C46.8564 291.715 47.202 291.863 47.5623 291.863H50.5947C50.9053 293.38 51.7133 294.742 52.8832 295.719C54.0532 296.696 55.514 297.229 57.0206 297.229C58.5272 297.229 59.9879 296.696 61.1579 295.719C62.3279 294.742 63.1359 293.38 63.4464 291.863H91.4878C91.7983 293.38 92.6061 294.741 93.7758 295.718C94.9454 296.695 96.4058 297.228 97.912 297.228C99.4182 297.228 100.879 296.695 102.048 295.718C103.218 294.741 104.026 293.38 104.336 291.863H107.385C107.745 291.863 108.09 291.715 108.345 291.453C108.6 291.191 108.743 290.836 108.743 290.465V275.508C108.733 271.967 107.45 268.554 105.141 265.928C102.833 263.302 99.6623 261.648 96.2401 261.285H96.2336ZM97.9095 286.492C98.6724 286.491 99.4184 286.723 100.053 287.159C100.688 287.594 101.183 288.214 101.475 288.939C101.768 289.665 101.845 290.463 101.697 291.233C101.548 292.004 101.181 292.711 100.642 293.267C100.103 293.822 99.4156 294.201 98.6674 294.354C97.9193 294.507 97.1437 294.429 96.4389 294.128C95.7341 293.828 95.1318 293.319 94.7081 292.666C94.2844 292.013 94.0584 291.245 94.0587 290.46C94.06 289.408 94.4661 288.401 95.1878 287.657C95.9096 286.913 96.8883 286.495 97.9095 286.492ZM97.9095 283.698C96.4045 283.701 94.9459 284.235 93.7772 285.211C92.6085 286.187 91.8004 287.546 91.4878 289.062H63.4464C63.1351 287.544 62.3264 286.183 61.1561 285.206C59.9858 284.229 58.5248 283.696 57.0181 283.696C55.5114 283.696 54.0505 284.229 52.8801 285.206C51.7098 286.183 50.9012 287.544 50.5898 289.062H48.9204V281.652H87.3191C87.6792 281.652 88.0247 281.505 88.2793 281.243C88.534 280.981 88.6771 280.625 88.6771 280.254V263.928H94.3326V277.092C94.3331 277.463 94.4765 277.819 94.7315 278.081C94.9864 278.343 95.332 278.49 95.6923 278.49H106.024V289.063H104.335C104.021 287.546 103.212 286.185 102.042 285.208C100.872 284.231 99.4115 283.696 97.9046 283.693L97.9095 283.698ZM57.0198 294.432C56.2572 294.432 55.5117 294.199 54.8777 293.763C54.2436 293.327 53.7494 292.707 53.4576 291.982C53.1657 291.257 53.0894 290.459 53.2382 289.689C53.3869 288.919 53.7542 288.212 54.2934 287.656C54.8326 287.101 55.5196 286.723 56.2676 286.57C57.0155 286.417 57.7907 286.496 58.4953 286.796C59.1998 287.097 59.802 287.605 60.2256 288.258C60.6493 288.911 60.8754 289.678 60.8754 290.463C60.8741 291.515 60.4675 292.524 59.7447 293.268C59.0219 294.012 58.042 294.431 57.0198 294.432ZM84.0112 278.855H47.564H47.5509H44.318V258.798H85.961V262.503V262.532V262.557V278.855H84.0258H84.0128H84.0112ZM106.022 275.699H97.0553V264.168C99.5871 264.712 101.86 266.136 103.493 268.201C105.125 270.266 106.018 272.846 106.022 275.508V275.699Z" fill="#CBCED6"/>
<path d="M111.5 255C113.433 255 115 253.433 115 251.5C115 249.567 113.433 248 111.5 248C109.567 248 108 249.567 108 251.5C108 253.433 109.567 255 111.5 255Z" stroke="#CBCED6" stroke-width="2"/>
<path d="M58.5 233C59.8807 233 61 231.881 61 230.5C61 229.119 59.8807 228 58.5 228C57.1193 228 56 229.119 56 230.5C56 231.881 57.1193 233 58.5 233Z" stroke="#CBCED6" stroke-width="2"/>
<path d="M81.844 239V244.688" stroke="#CBCED6" stroke-width="2" stroke-linecap="round" stroke-linejoin="round"/>
<path d="M84.688 241.844H79" stroke="#CBCED6" stroke-width="2" stroke-linecap="round" stroke-linejoin="round"/>
<path d="M36.844 245V250.688" stroke="#CBCED6" stroke-width="2" stroke-linecap="round" stroke-linejoin="round"/>
<path d="M39.688 247.844H34" stroke="#CBCED6" stroke-width="2" stroke-linecap="round" stroke-linejoin="round"/>
<circle cx="75" cy="75" r="74" fill="#FF710B" stroke="#FF710B" stroke-width="2"/>
<path d="M114.5 53C116.433 53 118 51.433 118 49.5C118 47.567 116.433 46 114.5 46C112.567 46 111 47.567 111 49.5C111 51.433 112.567 53 114.5 53Z" stroke="white" stroke-width="2"/>
<path d="M33.5 68C34.8807 68 36 66.8807 36 65.5C36 64.1193 34.8807 63 33.5 63C32.1193 63 31 64.1193 31 65.5C31 66.8807 32.1193 68 33.5 68Z" stroke="white" stroke-width="2"/>
<path d="M97.811 32.996V38.684" stroke="white" stroke-width="2" stroke-linecap="round" stroke-linejoin="round"/>
<path d="M100.655 35.84H94.967" stroke="white" stroke-width="2" stroke-linecap="round" stroke-linejoin="round"/>
<path d="M45.471 40.094V45.782" stroke="white" stroke-width="2" stroke-linecap="round" stroke-linejoin="round"/>
<path d="M48.315 42.938H42.627" stroke="white" stroke-width="2" stroke-linecap="round" stroke-linejoin="round"/>
<path d="M75.5904 79.4588C75.5091 79.4592 75.428 79.4483 75.3497 79.4264L54.4294 73.6991C54.2382 73.6459 54.0697 73.5315 53.9496 73.3734C53.8295 73.2154 53.7645 73.0223 53.7645 72.8238C53.7645 72.6253 53.8295 72.4322 53.9496 72.2742C54.0697 72.1161 54.2382 72.0017 54.4294 71.9485L75.3497 66.2213C75.5062 66.1793 75.6711 66.1793 75.8276 66.2213L96.7479 71.9485C96.9396 72.0011 97.1088 72.1153 97.2293 72.2735C97.3499 72.4316 97.4153 72.6249 97.4153 72.8238C97.4153 73.0227 97.3499 73.2161 97.2293 73.3742C97.1088 73.5323 96.9396 73.6465 96.7479 73.6991L75.8276 79.4264C75.7504 79.4482 75.6706 79.4591 75.5904 79.4588V79.4588ZM58.1032 72.8247L75.5904 77.6109L93.0767 72.8247L75.5904 68.0367L58.1032 72.8247Z" fill="white"/>
<path d="M75.5857 107C75.4663 107 75.3481 106.977 75.2379 106.931C75.1276 106.885 75.0276 106.818 74.9433 106.734C74.859 106.649 74.7923 106.549 74.7469 106.438C74.7015 106.328 74.6784 106.21 74.6788 106.09V78.5519C74.6788 78.3114 74.7744 78.0808 74.9445 77.9107C75.1145 77.7406 75.3452 77.6451 75.5857 77.6451C75.8262 77.6451 76.0568 77.7406 76.2269 77.9107C76.397 78.0808 76.4925 78.3114 76.4925 78.5519V106.09C76.4928 106.21 76.4695 106.328 76.424 106.438C76.3786 106.548 76.3119 106.649 76.2276 106.733C76.1434 106.818 76.0433 106.885 75.9332 106.93C75.823 106.976 75.705 107 75.5857 107Z" fill="white"/>
<path d="M75.5901 107C75.5088 106.999 75.4279 106.988 75.3493 106.968L54.4291 101.238C54.2373 101.185 54.0682 101.071 53.9478 100.913C53.8274 100.755 53.7625 100.561 53.763 100.362V84.218C53.7592 84.0966 53.7798 83.9756 53.8237 83.8624C53.8675 83.7491 53.9337 83.6458 54.0182 83.5586C54.1028 83.4714 54.204 83.4021 54.3158 83.3547C54.4277 83.3074 54.5479 83.283 54.6694 83.283C54.7909 83.283 54.911 83.3074 55.0229 83.3547C55.1347 83.4021 55.2359 83.4714 55.3204 83.5586C55.405 83.6458 55.4712 83.7491 55.515 83.8624C55.5589 83.9756 55.5796 84.0966 55.5758 84.218V99.6753L75.5918 105.155L95.6052 99.6753V84.218C95.6052 83.9772 95.7008 83.7463 95.871 83.5761C96.0413 83.4059 96.2721 83.3103 96.5129 83.3103C96.7536 83.3103 96.9845 83.4059 97.1547 83.5761C97.325 83.7463 97.4206 83.9772 97.4206 84.218V100.367C97.4206 100.566 97.3552 100.759 97.2343 100.918C97.1135 101.076 96.944 101.19 96.7519 101.242L75.8317 106.972C75.7526 106.991 75.6715 107.001 75.5901 107Z" fill="white"/>
<path d="M54.8361 73.7315C54.6805 73.7312 54.5277 73.6907 54.3923 73.614C54.257 73.5374 54.1436 73.4271 54.0632 73.2939L48.0655 63.5463C47.9915 63.4264 47.9465 63.291 47.9341 63.1507C47.9216 63.0104 47.942 62.8692 47.9937 62.7382C48.0453 62.6071 48.1268 62.4899 48.2316 62.3959C48.3365 62.3019 48.4618 62.2336 48.5977 62.1965L69.5179 56.4667C69.7075 56.4156 69.9085 56.427 70.0911 56.4992C70.2737 56.5715 70.4282 56.7006 70.5315 56.8676L76.5258 66.6151C76.6001 66.7349 76.6454 66.8704 76.658 67.0108C76.6707 67.1512 76.6505 67.2926 76.5987 67.4237C76.547 67.5549 76.4653 67.6721 76.3603 67.766C76.2552 67.86 76.1296 67.9281 75.9935 67.9649L55.0733 73.6948C54.996 73.7167 54.9164 73.729 54.8361 73.7315V73.7315ZM50.2459 63.6295L55.252 71.77L74.3515 66.5408L69.3446 58.4003L50.2459 63.6295Z" fill="white"/>
<path d="M96.6811 73.7315C96.6001 73.7306 96.5195 73.7198 96.4412 73.6992L75.5209 67.9693C75.3849 67.9325 75.2593 67.8644 75.1542 67.7704C75.0492 67.6765 74.9676 67.5593 74.9158 67.4281C74.8641 67.297 74.8438 67.1556 74.8564 67.0152C74.8691 66.8748 74.9144 66.7393 74.9887 66.6195L80.983 56.872C81.0863 56.705 81.2408 56.5759 81.4234 56.5036C81.606 56.4314 81.807 56.42 81.9966 56.471L102.917 62.2009C103.053 62.2379 103.178 62.3061 103.283 62.4C103.388 62.494 103.47 62.6113 103.521 62.7423C103.573 62.8734 103.593 63.0147 103.581 63.1551C103.568 63.2954 103.523 63.4309 103.449 63.5507L97.4522 73.2983C97.3718 73.4307 97.2585 73.5402 97.1234 73.6161C96.9883 73.692 96.836 73.7317 96.6811 73.7315ZM77.1613 66.5399L96.2608 71.7691L101.267 63.6286L82.1717 58.4003L77.1613 66.5399Z" fill="white"/>
<path d="M81.5843 89.2082C81.4288 89.2073 81.2761 89.1666 81.1408 89.09C81.0055 89.0134 80.8922 88.9034 80.8114 88.7705L74.8163 79.0229C74.7426 78.903 74.6976 78.7676 74.6852 78.6274C74.6728 78.4871 74.6933 78.3459 74.745 78.215C74.7966 78.084 74.8781 77.9669 74.9828 77.8728C75.0876 77.7788 75.2127 77.7104 75.3485 77.6731L96.2687 71.9432C96.4579 71.8916 96.6588 71.9028 96.8411 71.9751C97.0234 72.0474 97.1773 72.1769 97.2797 72.3441L103.277 82.0918C103.351 82.2122 103.395 82.3478 103.408 82.4882C103.42 82.6286 103.4 82.77 103.349 82.9014C103.297 83.0322 103.215 83.149 103.11 83.2428C103.005 83.3365 102.88 83.4045 102.744 83.4415L81.8242 89.1713C81.746 89.1934 81.6654 89.2058 81.5843 89.2082V89.2082ZM76.9967 79.106L82 87.2465L101.1 82.0174L96.0937 73.8769L76.9967 79.106Z" fill="white"/>
<path d="M69.5678 89.2081C69.4866 89.2069 69.4057 89.196 69.3271 89.1757L48.4068 83.4459C48.2708 83.4095 48.1452 83.3417 48.0401 83.2479C47.9351 83.1541 47.8535 83.0369 47.8021 82.9058C47.75 82.7747 47.7291 82.6333 47.7412 82.4928C47.7532 82.3523 47.7977 82.2165 47.8712 82.0961L53.8688 72.3485C53.9715 72.181 54.1257 72.0513 54.3083 71.979C54.491 71.9067 54.6922 71.8957 54.8817 71.9476L75.8018 77.6775C75.9377 77.7146 76.063 77.7829 76.1679 77.8769C76.2727 77.9709 76.3543 78.0881 76.406 78.2191C76.4576 78.3501 76.4779 78.4914 76.4655 78.6316C76.453 78.7719 76.408 78.9073 76.334 79.0272L70.3398 88.7748C70.2586 88.9067 70.1452 89.0158 70.0101 89.0916C69.875 89.1674 69.7227 89.2076 69.5678 89.2081V89.2081ZM50.0481 82.0165L69.1477 87.2456L74.1536 79.1051L55.054 73.8759L50.0481 82.0165Z" fill="white"/>
<rect x="26" y="26" width="98" height="98" stroke="#FF710B" stroke-width="2"/>
</svg>
