<svg width="12" height="12" viewBox="0 0 12 12" fill="none" xmlns="http://www.w3.org/2000/svg">
<path d="M6.11399 8.65601L8.04418 9.71998C8.08536 9.74267 8.13177 9.75283 8.17818 9.74932C8.22458 9.74581 8.26912 9.72875 8.30677 9.7001C8.34441 9.67144 8.37365 9.63233 8.39119 9.58717C8.40873 9.54201 8.41386 9.4926 8.40601 9.44454L8.03929 7.1917C8.03244 7.14997 8.03537 7.10712 8.04783 7.06683C8.06028 7.02655 8.08189 6.99005 8.1108 6.96046L9.67243 5.36483C9.70648 5.3309 9.7307 5.28759 9.74229 5.23986C9.75388 5.19214 9.75237 5.14196 9.73794 5.0951C9.7235 5.04824 9.69673 5.0066 9.6607 4.975C9.62467 4.94339 9.58085 4.92309 9.53429 4.91644L7.37613 4.58783C7.33615 4.58173 7.29818 4.56555 7.2655 4.54066C7.23281 4.51578 7.20639 4.48295 7.18849 4.44499L6.2234 2.39521C6.20276 2.35161 6.17091 2.31491 6.13144 2.28925C6.09197 2.2636 6.04645 2.25 6 2.25C5.95356 2.25 5.90803 2.2636 5.86856 2.28925C5.82909 2.31491 5.79724 2.35161 5.7766 2.39521L4.81151 4.44499C4.79362 4.48295 4.76719 4.51578 4.7345 4.54066C4.70182 4.56555 4.66385 4.58173 4.62387 4.58783L2.46571 4.91644C2.41915 4.92309 2.37533 4.94339 2.3393 4.975C2.30327 5.0066 2.2765 5.04824 2.26206 5.0951C2.24763 5.14196 2.24612 5.19214 2.25771 5.23986C2.2693 5.28759 2.29352 5.3309 2.32757 5.36483L3.8892 6.96046C3.91811 6.99005 3.93972 7.02655 3.95217 7.06683C3.96463 7.10712 3.96756 7.14997 3.96071 7.1917L3.59399 9.44454C3.58614 9.4926 3.59127 9.54201 3.60881 9.58717C3.62635 9.63233 3.65559 9.67144 3.69323 9.7001C3.73088 9.72875 3.77542 9.74581 3.82182 9.74932C3.86823 9.75283 3.91464 9.74267 3.95583 9.71998L5.88601 8.65601C5.92128 8.63701 5.96035 8.62711 6 8.62711C6.03965 8.62711 6.07873 8.63701 6.11399 8.65601Z" fill="#CBCED6"/>
</svg>
